<mxfile host="app.diagrams.net" agent="Mozilla/5.0 (Windows NT 10.0; Win64; x64) AppleWebKit/537.36 (KHTML, like Gecko) Chrome/134.0.0.0 Safari/537.36" version="26.0.14">
  <diagram name="Page-1" id="_WT9Ak88qaJ5BDTA4hlj">
    <mxGraphModel dx="1247" dy="642" grid="1" gridSize="10" guides="1" tooltips="1" connect="1" arrows="1" fold="1" page="1" pageScale="1" pageWidth="827" pageHeight="1169" math="0" shadow="0">
      <root>
        <mxCell id="0" />
        <mxCell id="1" parent="0" />
        <mxCell id="ijgNtJc6uFt55ZytA_dW-1" value="Login&lt;div&gt;(Admin/Staff)&lt;/div&gt;" style="rounded=0;whiteSpace=wrap;html=1;" vertex="1" parent="1">
          <mxGeometry x="20" y="160" width="120" height="60" as="geometry" />
        </mxCell>
        <mxCell id="ijgNtJc6uFt55ZytA_dW-2" value="Admin Dashboard" style="rounded=0;whiteSpace=wrap;html=1;" vertex="1" parent="1">
          <mxGeometry x="180" y="160" width="120" height="60" as="geometry" />
        </mxCell>
        <mxCell id="ijgNtJc6uFt55ZytA_dW-3" value="Manage Voters&lt;div&gt;Candidates&lt;br&gt;COnstituencies&lt;br&gt;sessions&lt;/div&gt;" style="rounded=0;whiteSpace=wrap;html=1;" vertex="1" parent="1">
          <mxGeometry x="380" y="160" width="120" height="60" as="geometry" />
        </mxCell>
        <mxCell id="ijgNtJc6uFt55ZytA_dW-4" value="Staff Dashbaord" style="rounded=0;whiteSpace=wrap;html=1;" vertex="1" parent="1">
          <mxGeometry x="180" y="290" width="120" height="60" as="geometry" />
        </mxCell>
        <mxCell id="ijgNtJc6uFt55ZytA_dW-5" value="Voting Interface" style="rounded=0;whiteSpace=wrap;html=1;" vertex="1" parent="1">
          <mxGeometry x="380" y="290" width="120" height="60" as="geometry" />
        </mxCell>
        <mxCell id="ijgNtJc6uFt55ZytA_dW-6" value="Biometric Verification" style="rounded=0;whiteSpace=wrap;html=1;" vertex="1" parent="1">
          <mxGeometry x="560" y="290" width="120" height="60" as="geometry" />
        </mxCell>
        <mxCell id="ijgNtJc6uFt55ZytA_dW-7" value="Verify Face FIngerprint, Retina" style="rounded=0;whiteSpace=wrap;html=1;" vertex="1" parent="1">
          <mxGeometry x="560" y="390" width="120" height="60" as="geometry" />
        </mxCell>
        <mxCell id="ijgNtJc6uFt55ZytA_dW-8" value="Cast vote&lt;div&gt;(record in the db)&lt;/div&gt;" style="rounded=0;whiteSpace=wrap;html=1;" vertex="1" parent="1">
          <mxGeometry x="560" y="480" width="120" height="60" as="geometry" />
        </mxCell>
        <mxCell id="ijgNtJc6uFt55ZytA_dW-9" value="email confirmation" style="rounded=0;whiteSpace=wrap;html=1;" vertex="1" parent="1">
          <mxGeometry x="560" y="570" width="120" height="60" as="geometry" />
        </mxCell>
        <mxCell id="ijgNtJc6uFt55ZytA_dW-10" value="Result tracking" style="rounded=0;whiteSpace=wrap;html=1;" vertex="1" parent="1">
          <mxGeometry x="560" y="160" width="120" height="60" as="geometry" />
        </mxCell>
        <mxCell id="ijgNtJc6uFt55ZytA_dW-11" value="" style="endArrow=none;html=1;rounded=0;" edge="1" parent="1" source="ijgNtJc6uFt55ZytA_dW-1" target="ijgNtJc6uFt55ZytA_dW-2">
          <mxGeometry width="50" height="50" relative="1" as="geometry">
            <mxPoint x="160" y="200" as="sourcePoint" />
            <mxPoint x="210" y="150" as="targetPoint" />
          </mxGeometry>
        </mxCell>
        <mxCell id="ijgNtJc6uFt55ZytA_dW-13" value="" style="endArrow=none;html=1;rounded=0;" edge="1" parent="1" source="ijgNtJc6uFt55ZytA_dW-4" target="ijgNtJc6uFt55ZytA_dW-1">
          <mxGeometry width="50" height="50" relative="1" as="geometry">
            <mxPoint y="340" as="sourcePoint" />
            <mxPoint x="50" y="290" as="targetPoint" />
            <Array as="points">
              <mxPoint x="80" y="320" />
            </Array>
          </mxGeometry>
        </mxCell>
        <mxCell id="ijgNtJc6uFt55ZytA_dW-14" value="" style="endArrow=none;html=1;rounded=0;" edge="1" parent="1" source="ijgNtJc6uFt55ZytA_dW-2" target="ijgNtJc6uFt55ZytA_dW-3">
          <mxGeometry width="50" height="50" relative="1" as="geometry">
            <mxPoint x="440" y="280" as="sourcePoint" />
            <mxPoint x="490" y="230" as="targetPoint" />
          </mxGeometry>
        </mxCell>
        <mxCell id="ijgNtJc6uFt55ZytA_dW-15" value="" style="endArrow=none;html=1;rounded=0;" edge="1" parent="1" source="ijgNtJc6uFt55ZytA_dW-4" target="ijgNtJc6uFt55ZytA_dW-5">
          <mxGeometry width="50" height="50" relative="1" as="geometry">
            <mxPoint x="410" y="470" as="sourcePoint" />
            <mxPoint x="460" y="420" as="targetPoint" />
          </mxGeometry>
        </mxCell>
        <mxCell id="ijgNtJc6uFt55ZytA_dW-16" value="" style="endArrow=none;html=1;rounded=0;" edge="1" parent="1" source="ijgNtJc6uFt55ZytA_dW-3" target="ijgNtJc6uFt55ZytA_dW-10">
          <mxGeometry width="50" height="50" relative="1" as="geometry">
            <mxPoint x="500" y="110" as="sourcePoint" />
            <mxPoint x="550" y="60" as="targetPoint" />
          </mxGeometry>
        </mxCell>
        <mxCell id="ijgNtJc6uFt55ZytA_dW-17" value="" style="endArrow=none;html=1;rounded=0;" edge="1" parent="1" source="ijgNtJc6uFt55ZytA_dW-7" target="ijgNtJc6uFt55ZytA_dW-6">
          <mxGeometry width="50" height="50" relative="1" as="geometry">
            <mxPoint x="370" y="520" as="sourcePoint" />
            <mxPoint x="420" y="470" as="targetPoint" />
          </mxGeometry>
        </mxCell>
        <mxCell id="ijgNtJc6uFt55ZytA_dW-18" value="" style="endArrow=none;html=1;rounded=0;" edge="1" parent="1" source="ijgNtJc6uFt55ZytA_dW-8" target="ijgNtJc6uFt55ZytA_dW-7">
          <mxGeometry width="50" height="50" relative="1" as="geometry">
            <mxPoint x="490" y="550" as="sourcePoint" />
            <mxPoint x="540" y="500" as="targetPoint" />
          </mxGeometry>
        </mxCell>
        <mxCell id="ijgNtJc6uFt55ZytA_dW-19" value="" style="endArrow=none;html=1;rounded=0;" edge="1" parent="1" source="ijgNtJc6uFt55ZytA_dW-6" target="ijgNtJc6uFt55ZytA_dW-5">
          <mxGeometry width="50" height="50" relative="1" as="geometry">
            <mxPoint x="490" y="490" as="sourcePoint" />
            <mxPoint x="540" y="440" as="targetPoint" />
          </mxGeometry>
        </mxCell>
        <mxCell id="ijgNtJc6uFt55ZytA_dW-20" value="" style="endArrow=none;html=1;rounded=0;" edge="1" parent="1" source="ijgNtJc6uFt55ZytA_dW-9" target="ijgNtJc6uFt55ZytA_dW-8">
          <mxGeometry width="50" height="50" relative="1" as="geometry">
            <mxPoint x="460" y="570" as="sourcePoint" />
            <mxPoint x="510" y="520" as="targetPoint" />
          </mxGeometry>
        </mxCell>
      </root>
    </mxGraphModel>
  </diagram>
</mxfile>
